<?xml version="1.0" standalone="no"?>
<!DOCTYPE svg PUBLIC "-//W3C//DTD SVG 20010904//EN"
 "http://www.w3.org/TR/2001/REC-SVG-20010904/DTD/svg10.dtd">
<svg version="1.0" xmlns="http://www.w3.org/2000/svg"
 width="2114.000000pt" height="2114.000000pt" viewBox="0 0 2114.000000 2114.000000"
 preserveAspectRatio="xMidYMid meet">
<metadata>
Created by potrace 1.14, written by Peter Selinger 2001-2017
</metadata>
<g transform="translate(0.000000,2114.000000) scale(0.100000,-0.100000)"
fill="#000000" stroke="none">
<path d="M19060 15690 c-107 -16 -215 -32 -240 -35 -50 -7 -378 -52 -425 -59
-31 -5 -163 -23 -225 -32 -19 -2 -62 -9 -95 -14 -33 -5 -78 -11 -100 -14 -83
-11 -341 -47 -365 -51 -14 -2 -126 -18 -250 -35 -124 -17 -236 -33 -250 -35
-14 -2 -173 -24 -355 -50 -181 -25 -346 -48 -365 -51 -56 -8 -311 -44 -354
-49 -21 -3 -50 -7 -65 -9 -14 -3 -44 -7 -66 -10 -32 -5 -366 -52 -580 -82 -22
-3 -83 -11 -135 -19 -52 -8 -115 -16 -140 -20 -25 -3 -56 -8 -70 -10 -14 -3
-47 -7 -75 -10 -27 -3 -77 -10 -110 -15 -33 -5 -78 -11 -100 -14 -90 -13 -121
-18 -135 -22 -13 -3 -15 -235 -18 -1991 -2 -1094 -5 -2387 -5 -2876 l-2 -887
25 1 c14 0 45 4 70 8 l46 7 -1 -78 c-1 -88 -5 -84 86 -68 30 5 78 12 108 15
30 4 61 8 70 10 24 4 91 14 141 20 25 4 56 8 70 10 14 2 45 7 70 10 25 3 56 8
70 10 14 2 95 13 180 25 85 11 166 23 180 25 30 4 106 15 140 20 14 2 45 6 70
10 77 9 132 17 210 30 27 4 76 11 155 21 28 3 57 8 66 9 9 2 40 6 70 10 30 3
61 8 69 10 8 2 40 7 70 10 30 3 82 10 115 15 33 5 80 12 105 15 25 3 56 8 70
10 14 2 45 7 70 10 25 3 56 8 70 10 14 3 43 7 65 10 50 6 192 25 225 30 14 2
48 7 75 11 28 3 59 8 69 10 11 2 56 8 100 14 45 6 92 13 106 15 14 2 45 7 70
10 25 3 56 8 70 10 14 2 45 6 70 10 25 3 56 8 70 10 14 2 50 7 80 11 30 3 57
7 60 9 3 2 39 6 80 10 41 4 77 8 80 10 3 2 30 6 60 10 30 3 96 13 145 20 50 8
113 16 140 20 28 3 61 8 75 10 14 3 42 7 63 10 94 13 114 15 142 19 17 3 66
10 111 16 44 6 89 12 100 14 10 2 48 7 84 12 36 4 67 8 70 9 6 1 120 18 135
20 26 2 141 19 148 21 4 1 15 2 25 3 16 1 17 23 17 336 l0 335 -45 -6 c-25 -3
-57 -7 -71 -10 l-26 -5 3 81 3 81 -27 -5 c-15 -3 -49 -8 -77 -11 -27 -3 -77
-10 -110 -15 -33 -5 -82 -12 -110 -15 -27 -3 -61 -8 -75 -10 -14 -3 -43 -7
-65 -11 -22 -3 -51 -7 -65 -9 -14 -2 -43 -6 -65 -9 -108 -15 -413 -57 -435
-61 -14 -2 -61 -9 -106 -15 -44 -6 -89 -12 -100 -14 -10 -2 -48 -7 -84 -12
-36 -4 -67 -8 -70 -9 -3 -1 -32 -5 -65 -9 -32 -4 -66 -9 -75 -11 -8 -1 -37 -6
-65 -9 -116 -16 -186 -26 -215 -31 -8 -2 -37 -6 -65 -9 -45 -6 -79 -10 -155
-21 -14 -2 -45 -6 -70 -10 -25 -3 -56 -8 -70 -10 -14 -2 -43 -7 -65 -9 -50 -6
-260 -36 -283 -40 -9 -2 -46 -7 -82 -12 -36 -4 -67 -8 -70 -9 -3 -1 -32 -5
-65 -9 -32 -4 -67 -9 -76 -11 -9 -2 -40 -6 -70 -10 -30 -3 -61 -8 -69 -10 -8
-2 -40 -7 -70 -10 -30 -3 -66 -8 -80 -10 -14 -2 -45 -7 -70 -10 -25 -3 -70
-10 -100 -15 -30 -5 -77 -12 -105 -15 -27 -3 -57 -8 -65 -10 -8 -2 -40 -6 -71
-10 -31 -3 -65 -7 -75 -9 -11 -2 -48 -7 -84 -11 -36 -4 -67 -8 -70 -10 -3 -2
-30 -6 -60 -9 -30 -3 -68 -8 -83 -11 l-28 -6 2 891 c1 812 3 890 18 891 9 0
25 2 36 4 11 2 43 7 70 10 28 3 61 8 75 10 14 2 43 7 65 10 23 3 50 7 61 9 12
2 45 7 75 11 30 3 65 8 79 10 14 2 45 7 70 10 25 3 56 8 70 10 30 5 107 16
135 20 11 1 47 6 80 9 33 4 67 9 75 12 8 2 35 6 60 9 65 7 228 31 280 40 14 2
48 7 75 10 77 9 179 23 215 30 8 2 38 6 65 9 28 4 113 16 190 26 77 11 156 22
175 25 19 2 85 11 145 20 61 8 128 18 150 21 22 3 85 12 140 20 55 9 118 17
140 19 22 3 51 7 65 10 14 2 44 7 68 10 103 13 130 16 182 25 30 5 78 12 105
15 28 4 61 8 75 10 14 2 48 7 75 10 28 3 61 8 75 10 22 4 43 7 130 20 14 2 50
7 80 10 30 4 62 9 70 10 24 5 162 25 200 29 19 2 58 7 85 11 l50 7 0 335 0
334 -50 -7 c-27 -3 -57 -8 -67 -9 -20 -4 -24 13 -23 93 1 68 3 67 -71 53 -27
-5 -78 -12 -114 -16 -35 -4 -67 -8 -70 -10 -3 -1 -27 -6 -55 -9 -45 -6 -78
-10 -155 -21 -14 -2 -43 -6 -65 -9 -33 -5 -316 -44 -430 -61 -16 -2 -52 -7
-80 -11 -27 -3 -57 -8 -66 -9 -9 -2 -40 -6 -70 -10 -30 -3 -65 -8 -79 -10 -46
-8 -85 -14 -135 -20 -27 -3 -77 -10 -110 -15 -33 -5 -80 -12 -105 -15 -25 -3
-54 -7 -65 -9 -26 -5 -96 -14 -260 -35 -49 -7 -97 -14 -105 -16 -8 -2 -39 -7
-69 -10 -30 -4 -61 -8 -70 -10 -15 -3 -79 -12 -146 -21 -175 -23 -294 -40
-345 -49 -14 -2 -47 -7 -75 -10 -27 -3 -63 -8 -80 -10 -74 -11 -402 -57 -420
-60 -11 -1 -44 -6 -74 -10 -30 -3 -62 -8 -71 -10 -9 -2 -41 -6 -71 -10 -30 -3
-78 -10 -108 -15 -30 -6 -64 -10 -76 -10 l-21 0 2 783 c1 430 3 801 3 824 1
46 4 48 81 58 25 3 56 8 70 10 14 2 50 7 80 10 30 3 62 8 70 10 8 2 39 7 69
10 30 4 63 9 75 11 12 2 37 6 56 8 31 4 172 23 225 31 24 4 94 13 150 20 22 3
51 8 65 10 14 2 45 7 70 10 25 4 56 8 70 10 14 2 45 6 70 10 53 6 117 16 144
21 10 2 44 6 75 9 31 4 63 8 71 10 8 2 39 7 69 10 30 4 63 8 74 11 11 2 57 8
101 14 81 11 90 12 176 25 25 4 56 8 70 10 29 5 176 24 221 30 17 2 42 6 57 9
15 3 50 8 77 11 54 7 106 14 145 21 14 2 52 7 85 10 33 4 63 8 66 10 3 2 32 6
64 10 32 3 66 7 76 9 9 2 39 6 66 10 26 4 59 9 73 11 14 2 48 6 75 9 28 3 57
8 65 10 8 2 40 7 70 10 30 3 66 8 80 10 42 8 81 13 170 25 47 6 96 13 110 15
14 2 45 6 70 10 75 11 93 14 140 20 25 3 56 8 70 10 14 2 50 7 80 10 30 4 64
9 75 11 11 3 46 7 77 11 41 4 59 10 62 22 2 9 3 158 3 331 l-2 315 -67 -3 -68
-3 0 75 c0 90 29 85 -240 46z"/>
<path d="M11247 14574 c-1 -1 -54 -4 -117 -8 -63 -3 -131 -9 -150 -11 -110
-16 -169 -25 -200 -29 -95 -14 -117 -17 -145 -21 -38 -6 -33 -5 -460 -65 -198
-27 -373 -52 -390 -54 -16 -3 -129 -19 -250 -36 -272 -38 -243 -34 -465 -65
-102 -15 -198 -28 -215 -31 -25 -3 -596 -83 -712 -99 -21 -3 -56 -8 -78 -11
-22 -3 -52 -7 -67 -10 l-26 -5 -2 -1182 c0 -650 -3 -1945 -4 -2879 l-3 -1696
21 4 c12 2 42 7 69 10 53 7 50 14 47 -97 l-1 -56 48 7 c27 5 73 11 102 15 30
4 61 8 70 10 9 1 41 6 71 10 30 4 62 9 70 10 8 2 38 6 65 9 50 7 98 14 145 21
14 2 79 11 145 20 123 17 171 23 215 30 14 2 63 9 110 15 47 6 96 13 110 15
14 2 91 13 172 25 81 11 155 22 165 24 10 2 47 7 83 11 36 3 72 8 80 10 8 2
40 7 70 10 30 4 57 8 60 10 3 1 36 6 75 10 38 4 72 8 75 10 3 1 32 6 65 9 33
4 67 9 75 11 8 2 38 6 65 10 28 3 61 8 75 10 14 2 111 16 215 30 105 14 201
28 215 30 14 2 45 7 70 10 25 3 56 8 70 10 14 2 45 7 70 10 25 3 72 10 105 15
33 5 78 12 100 15 22 4 56 10 75 15 19 5 47 11 61 14 142 24 446 127 624 209
137 64 380 203 449 257 240 189 285 229 406 355 337 352 580 789 725 1300 19
66 36 131 39 145 9 43 15 71 20 88 3 9 7 34 10 54 3 21 10 57 15 80 10 42 13
68 26 178 4 30 8 65 10 78 27 170 27 694 0 922 -5 43 -8 60 -21 148 -14 99
-60 300 -94 412 -87 290 -198 515 -364 740 -60 81 -370 405 -446 465 -182 145
-373 252 -582 324 -143 50 -233 72 -383 96 -22 3 -50 8 -63 10 -69 11 -405 27
-415 19z m283 -829 c90 -13 226 -44 290 -65 167 -56 371 -178 455 -273 165
-183 322 -528 384 -847 6 -30 14 -66 16 -80 45 -215 54 -695 20 -980 -95 -772
-449 -1398 -989 -1749 -179 -116 -446 -226 -651 -267 -11 -2 -33 -7 -50 -10
-16 -4 -39 -8 -50 -10 -11 -1 -36 -5 -55 -8 -19 -3 -147 -22 -285 -41 -137
-19 -347 -49 -465 -66 -118 -16 -228 -32 -245 -34 -16 -2 -48 -7 -70 -10 -22
-4 -56 -8 -75 -10 -19 -2 -64 -8 -100 -14 -36 -6 -87 -13 -115 -16 -27 -4 -90
-13 -140 -20 -49 -8 -112 -17 -140 -20 -27 -3 -59 -7 -70 -9 -18 -3 -43 -7
-155 -22 -19 -3 -62 -9 -95 -15 -33 -5 -69 -9 -80 -9 -20 0 -20 3 -18 978 1
537 3 1496 4 2130 1 1123 2 1152 20 1153 10 1 22 2 27 3 4 1 36 6 72 11 36 5
67 9 70 10 3 1 32 5 65 9 32 4 68 10 78 12 11 2 45 6 76 9 31 4 63 8 71 10 8
2 35 7 60 10 25 3 61 8 80 11 19 3 51 7 70 9 30 4 123 17 210 30 14 2 77 11
140 19 63 9 124 18 135 20 11 2 45 7 75 11 99 12 124 16 180 25 30 5 80 12
110 15 30 3 62 8 70 10 8 2 40 7 70 10 30 3 66 8 80 10 14 2 75 11 135 20 61
8 126 18 145 21 142 21 184 26 250 31 41 3 76 6 78 8 5 5 268 -3 312 -10z"/>
<path d="M5308 13735 c-2 -1 -57 -5 -123 -8 -99 -5 -258 -22 -385 -42 -23 -3
-142 -20 -215 -31 -16 -2 -142 -20 -280 -39 -137 -19 -266 -37 -285 -40 -158
-22 -655 -91 -825 -115 -115 -17 -259 -37 -320 -45 -60 -9 -126 -18 -145 -21
-35 -5 -284 -40 -350 -49 -261 -36 -604 -86 -606 -88 -1 -1 -4 -1296 -7 -2879
l-5 -2876 21 3 c12 2 43 6 69 10 l47 6 3 -78 c2 -45 7 -77 13 -77 6 1 34 5 64
8 30 4 64 9 75 11 12 2 44 7 71 10 61 8 93 12 148 20 23 4 56 8 72 10 17 3 80
12 140 21 61 9 124 17 140 19 35 4 123 16 146 20 9 2 40 6 69 10 29 4 62 8 73
11 10 2 45 6 76 10 31 3 65 8 76 10 11 2 40 6 65 10 25 3 119 16 210 29 91 13
188 27 215 30 28 3 75 10 105 15 30 5 75 11 100 14 25 4 54 8 65 10 12 2 48 7
80 11 33 4 71 9 85 11 14 2 45 6 70 9 25 3 56 8 70 10 42 8 80 13 205 30 120
16 168 23 215 30 14 2 48 7 75 11 28 3 57 8 66 9 9 2 40 6 70 10 30 3 128 17
219 30 91 14 188 27 215 31 28 3 53 8 57 10 4 3 26 7 50 10 24 4 95 20 158 36
63 16 123 31 132 33 105 23 418 152 548 226 284 160 515 373 665 613 82 133
181 367 200 475 3 19 8 37 10 41 6 10 33 179 41 256 8 86 9 297 0 374 -20 176
-58 322 -120 455 -64 137 -115 205 -270 363 -143 146 -256 233 -364 282 -29
13 -52 26 -52 29 0 3 22 21 48 38 156 107 333 324 422 518 99 214 135 391 135
660 0 359 -59 590 -212 825 -64 98 -300 339 -403 412 -155 109 -383 198 -578
224 -26 3 -56 8 -66 10 -11 2 -65 6 -120 10 -56 3 -116 7 -133 8 -18 2 -34 2
-35 1z m172 -831 c19 -3 46 -8 60 -10 50 -8 156 -46 205 -72 33 -18 60 -43 82
-76 34 -52 74 -170 93 -275 12 -64 15 -315 5 -361 -2 -14 -7 -47 -11 -75 -8
-73 -66 -240 -109 -315 -91 -158 -213 -269 -392 -359 -101 -51 -285 -112 -378
-126 -11 -2 -33 -6 -50 -9 -16 -3 -48 -8 -70 -11 -22 -3 -51 -8 -65 -10 -14
-3 -47 -7 -75 -10 -27 -3 -61 -8 -75 -10 -14 -3 -47 -7 -75 -11 -27 -3 -52 -7
-55 -9 -3 -2 -34 -6 -70 -10 -36 -4 -73 -9 -84 -11 -10 -2 -44 -6 -75 -9 -31
-4 -63 -8 -71 -10 -8 -2 -35 -7 -60 -10 -25 -3 -56 -8 -70 -10 -14 -2 -61 -9
-106 -15 -44 -6 -89 -12 -100 -14 -10 -2 -44 -7 -74 -11 -81 -10 -93 -12 -360
-50 -135 -19 -261 -37 -280 -39 -77 -10 -136 -18 -154 -22 -10 -2 -44 -6 -75
-9 -31 -4 -63 -8 -71 -10 -8 -2 -37 -7 -65 -10 -27 -3 -59 -8 -70 -10 -11 -2
-46 -7 -77 -10 -52 -6 -58 -5 -59 12 0 21 0 -20 1 905 0 400 4 730 9 732 9 6
225 39 331 51 30 3 62 8 70 10 8 2 38 6 65 10 28 3 95 12 150 20 55 8 123 17
150 20 28 4 57 8 65 10 8 3 42 7 75 11 33 3 62 7 65 9 3 2 34 6 70 10 36 4 72
8 80 10 8 1 40 6 70 10 30 4 64 9 74 11 11 2 56 8 100 14 45 6 92 13 106 15
14 2 45 7 70 10 25 3 56 8 70 10 14 2 43 6 65 9 22 3 105 15 185 26 80 11 165
23 188 26 24 3 54 7 65 10 12 2 47 7 76 10 30 3 57 7 60 9 4 1 35 6 71 10 36
4 74 9 85 11 11 3 61 7 110 10 50 4 91 8 93 9 5 4 177 -4 212 -11z m145 -2476
c142 -18 304 -77 364 -132 42 -38 108 -192 127 -296 36 -202 21 -464 -37 -641
-77 -236 -233 -416 -472 -548 -54 -30 -221 -99 -257 -106 -8 -2 -27 -8 -42
-14 -32 -12 -244 -57 -313 -66 -59 -7 -110 -15 -145 -21 -14 -2 -45 -6 -70 -9
-25 -3 -58 -8 -75 -10 -16 -3 -48 -7 -70 -10 -22 -3 -69 -10 -105 -15 -66 -10
-94 -13 -185 -26 -27 -3 -57 -8 -67 -9 -9 -2 -36 -6 -60 -9 -23 -4 -155 -22
-293 -41 -137 -20 -263 -37 -280 -40 -96 -13 -122 -17 -145 -20 -14 -2 -61 -9
-106 -15 -44 -6 -89 -12 -100 -14 -10 -2 -46 -7 -79 -10 -33 -4 -67 -9 -75
-11 -13 -4 -49 -8 -145 -20 -16 -2 -43 -6 -60 -9 -16 -3 -50 -8 -75 -11 -25
-3 -56 -8 -70 -10 -14 -2 -46 -6 -72 -9 -25 -3 -52 -7 -60 -8 -11 -3 -13 145
-12 880 1 485 3 884 5 886 2 2 22 7 44 10 22 4 54 8 70 11 17 3 48 7 70 10 22
3 69 10 105 15 36 5 88 12 115 15 28 3 61 8 75 10 42 8 81 13 205 30 66 9 131
18 145 20 14 2 45 7 70 10 47 6 65 9 140 20 82 12 95 14 140 20 44 5 99 13
150 20 14 2 45 7 70 10 25 3 56 8 70 10 46 7 244 34 290 40 25 3 54 7 65 9 11
2 58 9 105 15 47 7 96 14 110 16 14 2 61 9 105 15 44 6 91 13 105 15 14 2 63
9 110 15 47 7 96 14 110 16 14 1 54 6 90 10 36 3 66 8 68 9 8 7 287 1 347 -7z"/>
<path d="M18818 9366 c-1 -2 -36 -6 -75 -10 -147 -12 -306 -56 -425 -116 -77
-39 -90 -49 -146 -102 -83 -79 -123 -167 -126 -283 -4 -117 37 -206 125 -271
27 -20 49 -39 49 -43 0 -18 81 -92 130 -119 102 -57 237 -84 480 -97 203 -10
322 -26 346 -46 18 -15 18 -40 -2 -110 -30 -108 -141 -189 -317 -234 -124 -31
-196 -39 -362 -40 -162 0 -213 7 -310 41 -38 14 -74 26 -78 27 -5 1 -31 -35
-60 -81 -42 -68 -48 -85 -36 -93 16 -10 118 -50 136 -53 20 -3 26 -15 16 -28
-6 -7 -13 -22 -17 -34 -6 -18 2 -24 56 -47 113 -46 211 -61 403 -60 348 0 634
87 788 238 44 44 76 86 98 132 29 60 34 80 37 170 5 132 -12 187 -83 258 -27
28 -59 57 -70 66 -11 9 -32 32 -48 52 -53 70 -175 133 -293 152 -27 5 -54 9
-60 10 -37 8 -141 17 -354 30 -52 3 -104 8 -115 10 -11 3 -32 7 -48 9 -67 11
-69 14 -64 67 18 167 253 272 617 273 158 1 208 -4 300 -30 33 -9 62 -15 63
-13 16 21 97 154 97 159 0 11 -63 37 -123 50 -31 7 -57 15 -57 16 0 2 9 18 20
36 11 18 20 36 20 39 0 9 -102 46 -165 60 -44 10 -337 22 -347 15z m-348 -250
c0 -2 -27 -20 -60 -40 -32 -20 -78 -56 -101 -79 -23 -23 -37 -32 -31 -21 18
34 67 76 129 111 60 34 63 35 63 29z m793 -1179 c-27 -31 -102 -87 -118 -87
-4 0 19 19 51 43 33 24 65 51 73 60 7 9 16 17 18 17 3 0 -8 -15 -24 -33z
m-138 -97 c-3 -5 -12 -10 -18 -10 -7 0 -6 4 3 10 19 12 23 12 15 0z"/>
<path d="M17115 9108 c-104 -15 -211 -30 -236 -33 -25 -3 -56 -8 -70 -10 -13
-3 -42 -7 -64 -10 -22 -2 -54 -6 -70 -9 -17 -3 -66 -10 -110 -16 -76 -10 -102
-14 -171 -25 l-30 -5 -2 -795 -1 -796 32 5 c17 3 49 8 70 11 l37 5 0 -81 c0
-79 1 -81 23 -76 12 3 42 9 67 12 25 3 54 8 65 10 11 2 28 4 37 4 15 1 17 28
16 322 0 176 2 323 5 325 5 6 30 10 97 19 29 4 60 8 69 10 9 1 39 6 66 9 28 4
97 14 155 22 58 9 123 16 144 17 l40 2 131 -220 c122 -205 133 -220 161 -223
27 -3 36 -12 70 -73 l39 -69 45 5 c201 26 195 23 160 68 -11 14 -20 28 -20 31
0 3 -36 65 -80 137 -44 73 -80 133 -80 134 0 2 -36 62 -80 135 l-79 133 72 36
c124 61 250 210 271 321 3 14 8 36 11 50 11 47 6 185 -10 243 -25 94 -42 119
-146 212 -19 17 -47 47 -64 67 -102 123 -236 145 -570 96z m424 -307 c9 -6 14
-33 16 -83 4 -103 -24 -186 -82 -244 -68 -69 -139 -94 -343 -120 -19 -2 -48
-6 -65 -9 -16 -2 -52 -7 -80 -10 -27 -4 -57 -8 -65 -10 -23 -6 -141 -19 -179
-20 l-34 0 2 199 c1 110 2 201 4 202 1 1 27 5 58 8 31 4 67 9 79 11 12 2 41 6
64 9 40 5 97 13 146 21 14 3 50 7 80 11 30 3 57 8 60 9 3 2 34 6 70 10 36 4
80 10 99 13 54 11 155 13 170 3z m90 -448 c-30 -39 -96 -89 -105 -80 -3 2 10
14 28 25 18 12 44 32 57 46 28 30 40 35 20 9z"/>
<path d="M15975 8948 c-27 -4 -68 -10 -90 -13 -22 -3 -51 -8 -65 -10 -14 -2
-47 -7 -75 -10 -27 -3 -77 -10 -110 -15 -117 -17 -140 -21 -180 -25 -41 -5
-178 -25 -205 -30 -8 -1 -40 -6 -70 -10 -30 -3 -66 -8 -80 -10 -92 -14 -325
-47 -340 -48 -11 -1 -21 -6 -23 -12 -1 -5 -2 -363 -2 -795 0 -779 0 -785 20
-784 11 1 41 4 68 8 53 8 48 18 49 -97 1 -48 4 -57 17 -53 9 3 54 10 101 16
47 6 96 13 110 15 14 2 48 7 75 10 28 3 62 8 77 11 15 3 41 7 58 9 17 2 47 7
68 9 20 3 55 8 77 11 45 5 177 24 215 31 14 2 45 6 70 9 49 6 186 26 210 30
16 3 80 11 150 20 103 13 96 4 95 106 l0 91 -70 -7 -71 -6 1 77 1 76 -57 -6
c-31 -4 -65 -8 -76 -10 -10 -2 -40 -7 -68 -10 -27 -4 -97 -13 -155 -22 -58 -8
-121 -17 -140 -20 -19 -2 -51 -7 -70 -9 -46 -7 -78 -11 -248 -35 -78 -11 -147
-20 -152 -20 -6 0 -10 70 -10 185 l0 184 33 6 c63 10 173 27 207 31 19 2 49 6
65 9 17 2 53 7 80 10 28 4 61 8 75 11 14 2 45 7 70 10 25 3 52 7 60 9 8 2 40
7 70 10 30 3 66 8 80 10 14 2 45 7 70 10 25 3 56 8 70 10 14 2 45 6 70 10 107
15 98 5 98 106 l1 91 -70 -7 -69 -7 0 77 0 77 -62 -7 c-35 -3 -70 -8 -78 -10
-8 -2 -39 -7 -69 -10 -30 -4 -61 -8 -70 -10 -26 -4 -93 -14 -136 -19 -22 -3
-89 -12 -150 -21 -60 -9 -126 -18 -145 -21 -19 -2 -48 -6 -65 -9 -16 -3 -54
-7 -82 -11 l-53 -6 0 165 c0 91 3 168 8 171 4 2 28 7 52 10 25 4 57 9 72 12
15 3 42 7 60 9 18 1 69 8 113 14 114 17 141 21 225 32 84 11 123 17 160 24 14
2 49 7 79 10 30 4 62 8 71 10 9 2 41 6 70 10 29 4 60 8 69 10 9 1 42 6 74 9
l57 7 -2 92 c-3 103 4 97 -90 83 -36 -5 -48 -3 -49 6 0 7 0 43 1 79 1 73 5 70
-75 57z"/>
<path d="M13898 8675 c-2 -1 -30 -5 -63 -8 -33 -4 -71 -9 -85 -12 -14 -2 -38
-7 -55 -11 -140 -27 -336 -115 -455 -205 -235 -177 -353 -420 -352 -724 1
-232 61 -391 196 -515 27 -25 61 -58 75 -74 124 -138 250 -206 441 -237 66
-11 246 -14 278 -5 9 2 44 7 77 11 33 3 80 11 105 17 25 5 55 12 68 14 12 2
53 16 90 30 37 14 72 26 77 27 45 10 188 103 236 154 l37 38 -2 365 c0 237 -5
364 -11 363 -5 0 -36 -4 -67 -8 l-58 -7 0 77 0 77 -57 -6 c-32 -3 -69 -8 -83
-10 -31 -6 -47 -8 -292 -42 -163 -22 -198 -30 -199 -43 -1 -22 -1 -163 0 -180
1 -10 15 -12 69 -6 l68 7 -1 -77 -2 -76 56 6 c31 4 94 12 141 19 47 7 87 11
89 10 2 -2 3 -62 3 -134 0 -151 1 -148 -100 -200 -117 -59 -305 -102 -452
-103 -196 -1 -330 45 -368 125 -58 122 -72 323 -33 471 74 282 320 481 656
534 63 10 288 10 337 1 43 -9 139 -46 152 -59 22 -21 44 -4 87 71 l47 79 -32
24 c-17 13 -53 32 -81 42 -27 10 -51 20 -53 21 -2 1 4 14 13 27 16 25 16 26
-29 56 -69 48 -177 72 -333 76 -73 1 -133 1 -135 0z m-408 -299 c0 -2 -7 -7
-16 -10 -8 -3 -12 -2 -9 4 6 10 25 14 25 6z m-40 -21 c0 -2 -21 -19 -47 -37
-27 -18 -70 -53 -98 -77 -33 -30 -40 -34 -20 -12 26 29 152 131 161 131 2 0 4
-2 4 -5z m910 -1119 c0 -3 -4 -8 -10 -11 -5 -3 -10 -1 -10 4 0 6 5 11 10 11 6
0 10 -2 10 -4z"/>
<path d="M12495 8459 c-22 -4 -53 -9 -70 -10 l-30 -3 0 -634 c0 -349 -2 -635
-5 -637 -3 -2 -49 47 -102 108 -53 62 -107 123 -120 137 -13 14 -44 50 -70 80
-26 30 -57 67 -70 81 -29 33 -105 120 -242 278 -60 69 -117 135 -127 146 -47
50 -115 129 -122 141 -4 8 -13 14 -19 14 -12 0 -87 77 -115 118 -14 20 -22 23
-57 18 -23 -3 -61 -8 -86 -11 -25 -3 -54 -8 -65 -10 -11 -2 -27 -4 -35 -4 -13
-1 -15 -97 -16 -796 l-2 -795 22 0 c11 1 40 5 64 9 54 11 60 0 55 -88 l-4 -64
43 7 c24 4 61 9 83 12 92 11 82 -37 83 396 0 211 1 498 2 638 l1 255 32 -35
c54 -60 120 -135 167 -191 25 -29 52 -60 61 -68 8 -9 57 -65 109 -126 52 -60
97 -112 100 -115 3 -3 34 -39 70 -80 36 -41 67 -77 70 -80 3 -3 48 -54 100
-114 52 -61 143 -159 202 -218 87 -89 111 -108 130 -104 22 5 52 9 158 22 25
3 46 7 47 8 2 1 5 1547 4 1582 -1 9 -18 8 -66 -1 -36 -6 -66 -11 -66 -11 -1 1
-3 33 -5 71 -1 39 -3 74 -3 78 -1 8 -45 7 -106 -4z"/>
<path d="M10049 8116 c-2 -2 -20 -5 -39 -7 -34 -3 -70 -24 -70 -40 0 -5 -22
-55 -49 -111 -27 -57 -65 -137 -84 -178 -19 -41 -56 -119 -81 -172 -163 -345
-303 -643 -336 -713 -18 -38 -52 -110 -75 -160 -90 -188 -155 -328 -155 -332
0 -3 17 -2 38 1 20 3 60 8 87 12 28 3 58 8 68 10 23 7 22 6 -18 -80 -19 -41
-35 -78 -35 -81 0 -4 12 -4 28 -1 15 3 50 8 77 11 28 3 59 7 70 9 11 3 26 5
32 5 7 1 19 16 27 34 7 17 37 80 65 140 28 59 73 153 100 210 l48 103 169 23
c93 13 176 24 185 26 8 2 42 6 75 9 32 4 66 8 74 11 17 4 45 9 170 25 47 6 92
13 101 16 11 3 24 -12 43 -48 38 -71 109 -201 119 -215 4 -7 19 -10 35 -7 25
5 30 0 61 -58 19 -35 38 -68 42 -74 6 -7 35 -6 96 3 48 7 98 14 110 15 24 2
17 18 -147 318 -32 58 -106 195 -165 305 -59 110 -120 223 -135 250 -15 28
-46 86 -70 130 -23 44 -58 107 -76 140 -43 78 -117 216 -151 283 -24 47 -31
52 -60 52 -30 0 -35 5 -70 70 -34 63 -41 70 -69 70 -17 0 -33 -2 -35 -4z m161
-621 c30 -55 75 -140 102 -189 26 -49 46 -92 43 -95 -3 -3 -13 -6 -23 -7 -9
-2 -37 -6 -62 -10 -25 -4 -58 -8 -75 -10 -16 -1 -46 -5 -65 -8 -66 -11 -175
-26 -192 -26 -14 0 -11 13 21 78 39 77 98 201 153 321 16 35 33 60 37 55 5 -5
32 -54 61 -109z"/>
<path d="M7549 7786 c-2 -2 -26 -6 -54 -10 -317 -39 -611 -203 -765 -427 -34
-49 -109 -190 -109 -205 0 -2 -6 -28 -15 -57 -34 -118 -43 -348 -17 -435 5
-18 10 -36 11 -40 14 -95 100 -240 184 -312 17 -14 44 -40 60 -59 122 -136
245 -204 424 -235 191 -34 457 -4 650 73 411 164 630 486 617 908 -6 204 -75
376 -193 478 -40 35 -60 54 -122 120 -25 27 -69 64 -99 83 -50 32 -191 96
-191 87 0 -3 -12 0 -26 5 -14 6 -42 13 -62 16 -43 6 -288 15 -293 10z m-379
-301 c0 -2 -10 -9 -22 -15 -22 -11 -22 -10 -4 4 21 17 26 19 26 11z m-51 -29
c-2 -2 -31 -25 -64 -51 -33 -26 -68 -55 -77 -63 -10 -8 -18 -13 -18 -9 0 7
149 127 157 127 4 0 4 -2 2 -4z m836 -16 c124 -37 161 -71 191 -172 23 -77 25
-85 28 -183 8 -206 -54 -380 -184 -515 -101 -106 -220 -172 -385 -215 -214
-56 -386 -49 -541 21 -41 18 -56 31 -72 66 -35 71 -54 158 -57 258 -8 257 99
471 302 607 100 67 247 125 354 138 30 4 56 8 58 10 8 9 270 -4 306 -15z m185
-1004 c0 -7 -135 -113 -160 -125 -21 -9 -22 -9 -6 1 10 7 50 39 90 70 72 58
76 61 76 54z m-190 -141 c0 -2 -10 -9 -22 -15 -22 -11 -22 -10 -4 4 21 17 26
19 26 11z"/>
<path d="M6257 7584 c-1 -1 -22 -5 -47 -8 -25 -4 -56 -9 -70 -11 -14 -2 -43
-7 -65 -9 -22 -3 -87 -12 -145 -21 -58 -8 -126 -17 -151 -20 -26 -3 -58 -8
-70 -11 -13 -2 -42 -6 -64 -9 -43 -4 -316 -43 -351 -49 -12 -3 -48 -7 -80 -11
-33 -4 -70 -9 -84 -11 -14 -2 -51 -7 -82 -11 -32 -3 -58 -11 -59 -17 0 -6 -1
-365 -3 -798 l-2 -788 26 5 c93 15 110 16 111 3 1 -7 1 -43 1 -80 -1 -62 1
-66 20 -63 11 3 46 7 77 11 31 3 58 8 61 9 3 2 34 6 70 10 36 3 72 8 80 10 8
2 39 7 69 10 30 4 63 9 75 11 12 2 41 6 66 9 25 3 56 8 70 10 14 3 48 7 75 10
28 4 57 8 65 10 8 2 40 7 70 10 30 3 62 8 70 10 8 2 38 6 65 10 28 3 64 7 80
10 17 2 48 7 69 10 22 3 51 7 65 10 14 2 49 6 76 10 28 3 59 8 70 10 11 2 23
4 26 4 4 1 7 42 7 92 l1 91 -69 -6 c-53 -5 -70 -3 -71 6 0 7 0 43 -1 81 0 37
-3 65 -7 63 -4 -3 -30 -8 -57 -11 -27 -4 -60 -8 -74 -11 -23 -4 -55 -8 -140
-18 -19 -3 -84 -12 -145 -21 -60 -8 -128 -18 -150 -21 -22 -3 -51 -7 -65 -9
-34 -5 -245 -35 -297 -42 l-42 -5 0 186 c1 102 4 186 7 187 4 0 16 2 27 4 11
2 72 11 135 20 63 9 126 18 140 20 14 2 48 7 75 10 28 4 124 17 215 30 91 13
188 27 215 31 28 3 58 8 69 10 10 2 44 6 75 9 96 11 91 4 91 111 0 52 -4 93
-8 90 -5 -3 -37 -8 -71 -12 l-62 -6 3 73 2 74 -39 -1 c-36 -1 -87 -7 -165 -19
-14 -2 -79 -11 -145 -20 -66 -9 -131 -18 -145 -20 -14 -2 -45 -6 -70 -10 -25
-3 -56 -8 -70 -10 -14 -2 -45 -7 -70 -10 -25 -3 -56 -8 -70 -10 -14 -2 -50 -7
-82 -11 l-56 -6 0 166 c0 91 3 168 7 170 4 3 30 8 57 12 27 3 56 8 65 9 9 2
40 6 70 10 30 3 79 10 109 15 30 5 74 12 98 15 80 10 127 16 152 20 14 2 45 7
70 10 25 3 56 8 70 10 14 2 45 7 70 10 25 3 56 8 70 10 14 2 50 7 80 11 30 4
57 8 60 9 3 1 33 5 68 9 l62 8 0 94 0 94 -27 -4 c-16 -3 -47 -8 -70 -11 l-43
-6 0 78 c0 73 -2 79 -20 79 -12 0 -22 -1 -23 -2z"/>
<path d="M4157 7304 c-1 -1 -36 -5 -77 -9 -41 -3 -82 -8 -90 -10 -8 -2 -31 -7
-50 -10 -65 -11 -151 -35 -218 -61 -243 -98 -363 -256 -349 -460 6 -89 38
-155 104 -212 51 -46 59 -54 112 -114 54 -62 165 -116 268 -133 21 -3 45 -7
53 -10 20 -5 107 -14 205 -20 44 -3 118 -7 165 -10 114 -7 208 -24 224 -41 33
-32 -7 -154 -72 -218 -54 -55 -175 -112 -277 -132 -22 -4 -42 -8 -45 -9 -4 -1
-77 -11 -155 -21 -40 -5 -251 -4 -280 1 -96 18 -139 28 -186 46 -30 10 -57 19
-60 19 -12 0 -100 -153 -95 -165 2 -7 40 -25 83 -40 43 -16 80 -30 82 -31 1
-2 -4 -13 -13 -26 -9 -12 -16 -28 -16 -34 0 -12 98 -60 140 -68 14 -2 48 -10
75 -16 72 -17 343 -20 460 -5 282 38 454 107 583 235 93 93 138 210 129 344
-7 117 -47 194 -133 254 -17 11 -43 39 -58 61 -70 100 -240 169 -461 186 -33
3 -98 7 -145 10 -181 12 -228 17 -293 30 -44 9 -52 18 -48 64 6 100 108 186
271 230 76 21 93 24 210 40 69 9 298 6 340 -4 14 -3 38 -8 53 -11 16 -3 46
-11 66 -19 l38 -13 51 83 c38 62 48 86 39 93 -13 10 -99 40 -137 47 -33 6 -34
11 -11 48 17 27 18 37 9 45 -16 12 -137 48 -198 58 -41 6 -287 13 -293 8z
m-439 -303 c-42 -27 -83 -59 -92 -72 -9 -13 -16 -18 -16 -12 0 20 63 77 116
106 77 41 73 31 -8 -22z m858 -1140 c-20 -21 -56 -48 -79 -61 -53 -29 -48 -23
31 34 35 26 65 53 69 62 3 8 8 12 11 9 3 -3 -11 -23 -32 -44z"/>
<path d="M2920 7114 c-47 -7 -107 -16 -134 -19 -27 -4 -57 -8 -67 -10 -9 -2
-39 -6 -66 -10 -26 -4 -59 -8 -73 -10 -14 -2 -47 -7 -75 -11 -27 -3 -58 -8
-69 -10 -10 -2 -44 -6 -75 -10 -31 -3 -58 -8 -61 -9 -3 -2 -37 -6 -75 -10 -39
-4 -72 -9 -75 -10 -3 -2 -34 -6 -70 -10 -36 -4 -67 -8 -70 -10 -3 -2 -34 -6
-70 -10 -36 -3 -72 -8 -80 -10 -8 -3 -32 -7 -54 -10 -21 -2 -40 -6 -42 -8 -3
-2 -6 -1446 -4 -1570 0 -19 7 -19 118 -2 21 4 22 1 22 -76 l0 -80 48 6 c26 4
54 8 62 10 8 3 35 7 60 10 51 6 113 14 150 20 14 2 43 6 65 9 22 3 121 17 220
31 99 14 198 28 220 31 22 2 67 9 100 14 33 5 80 12 105 15 44 5 111 15 140
20 43 7 136 18 143 17 4 -1 7 41 7 94 l0 96 -52 -7 c-29 -4 -61 -9 -71 -11
-16 -3 -18 4 -14 66 2 38 1 74 -3 79 -4 7 -30 7 -75 0 -39 -5 -86 -11 -105
-14 -55 -8 -322 -45 -355 -49 -16 -3 -66 -10 -111 -16 -44 -6 -90 -12 -101
-14 -11 -3 -44 -7 -74 -11 -30 -4 -73 -10 -96 -14 -23 -5 -46 -5 -51 -2 -9 6
-11 356 -1 365 5 5 90 19 184 31 57 7 178 24 215 30 51 8 96 14 146 20 28 3
60 7 71 9 11 3 44 7 73 11 29 4 60 8 69 10 9 1 41 6 71 10 30 4 62 9 71 10 9
2 40 6 70 10 30 4 57 10 61 13 7 7 12 82 9 150 l-1 32 -57 -6 c-32 -4 -62 -7
-68 -8 -5 0 -9 33 -10 74 0 73 -1 75 -25 74 -27 -1 -120 -12 -160 -18 -31 -6
-174 -27 -212 -32 -58 -7 -233 -32 -423 -59 -22 -3 -51 -7 -65 -8 l-25 -2 0
168 c0 186 -8 170 80 182 28 3 61 8 75 10 14 2 59 8 100 14 41 6 91 13 110 15
91 14 320 46 365 51 28 3 59 8 70 10 11 2 43 7 70 10 28 3 59 8 71 10 11 2 45
7 75 11 78 9 78 9 85 16 3 4 6 36 6 72 -1 125 1 115 -29 107 -16 -3 -46 -7
-68 -6 l-40 0 0 73 1 72 -36 -1 c-19 -1 -73 -7 -120 -15z"/>
</g>
</svg>
