<svg width="167" height="100" viewBox="0 0 167 100" fill="none" xmlns="http://www.w3.org/2000/svg">
    <path d="M113.162 0H90.8004C88.7178 0 86.7134 0.780967 85.1775 2.18671L59.5878 25.6157C59.5617 25.6417 59.5357 25.6938 59.5097 25.7198C55.1883 29.7809 55.2664 36.2629 58.963 40.2979C62.2691 43.9164 69.2197 44.8796 73.5671 41.0008C73.5931 40.9747 73.6452 40.9747 73.6712 40.9487L94.471 21.8931C96.163 20.3572 98.8183 20.4613 100.354 22.1534C101.916 23.8455 101.786 26.4748 100.094 28.0367L93.2995 34.2584L131.202 65.0285C131.957 65.6533 132.634 66.3301 133.259 67.033V16.6606L119.045 2.44703C117.509 0.885096 115.375 0 113.162 0ZM141.615 16.7127V74.9988C141.615 79.6065 145.338 83.3292 149.946 83.3292H166.606V16.7127H141.615ZM154.111 74.9988C151.82 74.9988 149.946 73.1245 149.946 70.8337C149.946 68.5428 151.82 66.6685 154.111 66.6685C156.402 66.6685 158.276 68.5428 158.276 70.8337C158.276 73.1245 156.402 74.9988 154.111 74.9988ZM0 83.3031H16.6606C21.2683 83.3031 24.9909 79.5805 24.9909 74.9728V16.7127H0V83.3031ZM12.4955 66.6685C14.7863 66.6685 16.6606 68.5428 16.6606 70.8337C16.6606 73.1245 14.7863 74.9988 12.4955 74.9988C10.2046 74.9988 8.33031 73.1245 8.33031 70.8337C8.33031 68.5168 10.2046 66.6685 12.4955 66.6685ZM125.97 71.5105L87.1038 39.9595L79.2942 47.1183C71.5626 54.1731 59.7179 53.4962 52.8194 45.9729C45.8167 38.3194 46.3634 26.4748 53.9648 19.4981L75.2592 0H53.4442C51.2314 0 49.1228 0.885096 47.5609 2.44703L33.3213 16.6606V74.9468H38.0851L61.6443 96.2672C68.7771 102.072 79.2681 100.979 85.0733 93.8462L85.1254 93.7941L89.7851 97.8291C93.9243 101.213 100.042 100.562 103.4 96.4234L111.574 86.3749L112.98 87.5203C116.546 90.4099 121.805 89.8893 124.694 86.2968L127.167 83.2511C130.083 79.6586 129.536 74.4261 125.97 71.5105Z" fill="#1D1D1D"/>
</svg>
