<svg width="125" height="100" viewBox="0 0 125 100" fill="none" xmlns="http://www.w3.org/2000/svg">
    <path d="M25 68.75H6.25C2.79883 68.75 0 71.5488 0 75V93.75C0 97.2012 2.79883 100 6.25 100H25C28.4512 100 31.25 97.2012 31.25 93.75V75C31.25 71.5488 28.4512 68.75 25 68.75ZM20.3125 53.125H57.8125V62.5H67.1875V53.125H104.688V62.5H114.062V51.252C114.062 47.1172 110.697 43.75 106.561 43.75H67.1875V31.25H75C78.4512 31.25 81.25 28.4512 81.25 25V6.25C81.25 2.79883 78.4512 0 75 0H50C46.5488 0 43.75 2.79883 43.75 6.25V25C43.75 28.4512 46.5488 31.25 50 31.25H57.8125V43.75H18.4395C14.3027 43.75 10.9375 47.1152 10.9375 51.252V62.5H20.3125V53.125ZM71.875 68.75H53.125C49.6738 68.75 46.875 71.5488 46.875 75V93.75C46.875 97.2012 49.6738 100 53.125 100H71.875C75.3262 100 78.125 97.2012 78.125 93.75V75C78.125 71.5488 75.3262 68.75 71.875 68.75ZM118.75 68.75H100C96.5488 68.75 93.75 71.5488 93.75 75V93.75C93.75 97.2012 96.5488 100 100 100H118.75C122.201 100 125 97.2012 125 93.75V75C125 71.5488 122.201 68.75 118.75 68.75Z" fill="#1D1D1D"/>
</svg>
