<svg id="Calque_1" data-name="Calque 1" xmlns="http://www.w3.org/2000/svg" xmlns:xlink="http://www.w3.org/1999/xlink" viewBox="0 0 127.97 75.61"><defs><style>.cls-1{fill:none;}.cls-2{isolation:isolate;}.cls-3{clip-path:url(#clip-path);}.cls-4{fill:#1d1d1d;}.cls-5{clip-path:url(#clip-path-2);}.cls-6{fill:#ececec;}</style><clipPath id="clip-path" transform="translate(-411.62 -465.46)"><polygon class="cls-1" points="412.6 541.23 412.71 484.19 539.69 466.35 539.58 523.38 412.6 541.23"/></clipPath><clipPath id="clip-path-2" transform="translate(-411.62 -465.46)"><polygon class="cls-1" points="411.6 540.23 411.71 483.19 538.69 465.35 538.58 522.38 411.6 540.23"/></clipPath></defs><g class="cls-2"><g class="cls-3"><path class="cls-4" d="M418,520.09l0-13.93,17.81-2.5c4.52-.63,8.35.27,8.34,5.8s-3.84,7.49-8.37,8.13L418,520.09m0-18.72,0-13.13,17.27-2.43c4.23-.59,7.39.52,7.39,5.53s-3.18,7-7.41,7.6L418,501.37M435.31,481l-22.6,3.17-.08,41.45,23.14-3.25c7.18-1,14-4.92,14-13.73,0-4.77-2.42-8.13-6.71-8.88a10.23,10.23,0,0,0,5.24-9.24c0-8.3-6.1-10.5-13-9.52" transform="translate(-411.62 -465.46)"/><path class="cls-4" d="M462.62,513.82l.06-31.85,15.73-2.21c8.75-1.23,13.15,5.2,13.14,14.07s-4.45,16.55-13.2,17.78l-15.73,2.21M478.42,475l-21.05,3-.08,41.45,21-3c11.65-1.64,18.78-11,18.81-23.37S490,473.33,478.42,475" transform="translate(-411.62 -465.46)"/><polyline class="cls-4" points="127.28 1 93.07 5.81 93 47.25 127.46 42.41 127.47 37.61 98.34 41.71 98.36 27.74 125.74 23.9 125.75 19.1 98.37 22.95 98.4 9.86 127.27 5.8 127.28 1"/><polyline class="cls-4" points="10.46 62.85 1.02 64.17 1 75.61 10.51 74.28 10.51 72.95 2.47 74.08 2.48 70.23 10.03 69.17 10.03 67.84 2.48 68.91 2.48 65.29 10.45 64.17 10.46 62.85"/><path class="cls-4" d="M428.87,527.2c-1.8.25-4.64,1.1-4.65,3.64s2.91,2.62,4.64,2.73c1.07.06,3.61,0,3.61,1.57,0,1.79-2.13,2.27-3.35,2.45a7.84,7.84,0,0,1-4.49-.44l-.73,1.2c1.33.83,3.66.78,5.22.56,2-.28,4.81-1.23,4.82-4,0-2.59-3-2.7-4.81-2.82-1-.07-3.43,0-3.43-1.48s2.13-2,3.17-2.11a7.83,7.83,0,0,1,3.89.29l.74-1.19c-1.16-.69-3.29-.61-4.63-.42" transform="translate(-411.62 -465.46)"/><polyline class="cls-4" points="33.69 59.58 24.25 60.91 24.23 72.35 33.74 71.01 33.74 69.69 25.71 70.82 25.71 66.96 33.26 65.9 33.26 64.58 25.71 65.64 25.72 62.02 33.68 60.91 33.69 59.58"/><path class="cls-4" d="M453.84,534.11c-2.69.38-5-.67-5-3.85s2.31-4.87,5-5.25,5,.67,5,3.84-2.31,4.88-5,5.26m0-10.43c-3.4.48-6.57,2.73-6.58,6.8s3.16,5.43,6.56,4.95,6.57-2.73,6.58-6.8-3.16-5.42-6.56-5" transform="translate(-411.62 -465.46)"/><path class="cls-4" d="M469.79,528.45l2.42-5.11,2.39,4.43-4.81.68m3-7.26-1.08.15-5.78,12.25,1.58-.23,1.65-3.49,6.15-.86,1.63,3,1.59-.23-5.74-10.62" transform="translate(-411.62 -465.46)"/><polyline class="cls-4" points="79.07 53.21 77.59 53.41 77.57 62.81 70.27 54.44 68.59 54.68 68.57 66.12 70.03 65.91 70.05 56.51 77.35 64.88 79.05 64.64 79.07 53.21"/><path class="cls-4" d="M499.31,517.3c-3.39.47-6.57,2.73-6.58,6.79s3.16,5.43,6.56,5a7.33,7.33,0,0,0,4.54-2v-5.26l-4.54.64v1.5l3.07-.44v3.11a6,6,0,0,1-3.07,1.16c-2.69.38-5-.67-5-3.85s2.32-4.87,5-5.25a5.21,5.21,0,0,1,3.64.54l.73-1.18c-.94-.92-3.13-.86-4.37-.68" transform="translate(-411.62 -465.46)"/><polyline class="cls-4" points="103.87 49.72 94.44 51.05 94.42 62.48 103.92 61.15 103.93 59.82 95.89 60.95 95.9 57.1 103.45 56.04 103.45 54.71 95.9 55.77 95.91 52.16 103.87 51.04 103.87 49.72"/><path class="cls-4" d="M519.24,520.09V516l5-.71c1.31-.18,2.09.3,2.09,1.77a2.22,2.22,0,0,1-2.09,2.35l-5,.71m5.06-6.15-6.52.92,0,11.44,1.48-.21v-4.68l4.52-.63,2.56,4.31,1.6-.22-2.63-4.43a3.73,3.73,0,0,0,2.63-3.63c0-2.36-1.61-3.15-3.62-2.87" transform="translate(-411.62 -465.46)"/><path class="cls-4" d="M534.52,512.35c-1.8.25-4.64,1.1-4.65,3.64s2.91,2.62,4.64,2.73c1.07.07,3.61,0,3.6,1.57,0,1.79-2.12,2.28-3.35,2.45a7.89,7.89,0,0,1-4.48-.43l-.74,1.19c1.33.83,3.67.78,5.22.56,2-.28,4.82-1.23,4.83-4,0-2.59-3-2.69-4.82-2.81-1-.07-3.42,0-3.42-1.48s2.13-2,3.17-2.12a7.83,7.83,0,0,1,3.89.29l.74-1.19c-1.16-.68-3.29-.61-4.63-.42" transform="translate(-411.62 -465.46)"/></g></g><g class="cls-2"><g class="cls-5"><path class="cls-6" d="M417,519.09l0-13.92,17.81-2.51c4.52-.63,8.35.27,8.34,5.79s-3.84,7.51-8.37,8.14l-17.8,2.5m0-18.72,0-13.13,17.27-2.42c4.23-.6,7.4.51,7.39,5.52s-3.18,7-7.41,7.6L417,500.37M434.31,480l-22.6,3.17-.08,41.45,23.14-3.25c7.18-1,14-4.92,14-13.74,0-4.76-2.43-8.12-6.71-8.87a10.24,10.24,0,0,0,5.23-9.24c0-8.3-6.1-10.49-13-9.52" transform="translate(-411.62 -465.46)"/><path class="cls-6" d="M461.63,512.82l.05-31.85,15.72-2.21c8.76-1.23,13.16,5.2,13.15,14.07s-4.44,16.55-13.21,17.78l-15.71,2.21M477.41,474l-21,3-.08,41.45,21-3c11.66-1.64,18.79-11,18.82-23.36S489,472.33,477.41,474" transform="translate(-411.62 -465.46)"/><polyline class="cls-6" points="126.28 0 92.07 4.81 92 46.26 126.47 41.41 126.47 36.61 97.33 40.71 97.36 26.75 124.73 22.9 124.74 18.1 97.37 21.95 97.39 8.86 126.27 4.8 126.28 0"/><polyline class="cls-6" points="9.46 61.85 0.02 63.17 0 74.61 9.51 73.28 9.51 71.95 1.47 73.08 1.48 69.23 9.03 68.17 9.03 66.84 1.48 67.91 1.49 64.29 9.46 63.17 9.46 61.85"/><path class="cls-6" d="M427.87,526.2c-1.79.25-4.64,1.1-4.64,3.64s2.9,2.62,4.64,2.73c1.06.07,3.6,0,3.6,1.57,0,1.79-2.13,2.28-3.36,2.45a7.81,7.81,0,0,1-4.48-.44l-.74,1.2c1.33.83,3.67.78,5.22.56,2-.28,4.83-1.23,4.83-4,0-2.59-3-2.69-4.82-2.82-1-.07-3.42,0-3.42-1.48s2.13-2,3.17-2.11a7.83,7.83,0,0,1,3.89.29l.74-1.19c-1.15-.69-3.29-.61-4.63-.42" transform="translate(-411.62 -465.46)"/><polyline class="cls-6" points="32.69 58.58 23.25 59.91 23.23 71.35 32.74 70.01 32.74 68.69 24.7 69.82 24.71 65.96 32.26 64.9 32.26 63.58 24.71 64.64 24.71 61.03 32.69 59.91 32.69 58.58"/><path class="cls-6" d="M452.84,533.11c-2.69.38-5-.67-5-3.85s2.32-4.87,5-5.25,5,.67,5,3.84-2.31,4.88-5,5.26m0-10.42c-3.39.47-6.57,2.73-6.58,6.79s3.16,5.43,6.56,5,6.57-2.73,6.58-6.81-3.16-5.42-6.56-4.94" transform="translate(-411.62 -465.46)"/><path class="cls-6" d="M468.79,527.45l2.42-5.11,2.39,4.43-4.81.68m3-7.26-1.08.15-5.78,12.25,1.58-.23,1.65-3.49,6.14-.86,1.64,3,1.59-.22-5.74-10.63" transform="translate(-411.62 -465.46)"/><polyline class="cls-6" points="78.07 52.21 76.59 52.41 76.58 61.81 69.27 53.44 67.59 53.68 67.57 65.12 69.03 64.91 69.05 55.51 76.36 63.88 78.05 63.65 78.07 52.21"/><path class="cls-6" d="M498.31,516.3c-3.39.48-6.57,2.73-6.58,6.79s3.16,5.44,6.56,5a7.36,7.36,0,0,0,4.54-2v-5.26l-4.54.64v1.5l3.07-.44v3.11a6,6,0,0,1-3.07,1.16c-2.69.38-5-.67-5-3.85s2.32-4.87,5-5.25a5.27,5.27,0,0,1,3.64.54l.73-1.18c-.94-.92-3.13-.86-4.37-.68" transform="translate(-411.62 -465.46)"/><polyline class="cls-6" points="102.88 48.72 93.44 50.05 93.42 61.48 102.93 60.15 102.93 58.83 94.89 59.95 94.9 56.1 102.45 55.04 102.45 53.72 94.9 54.78 94.91 51.16 102.87 50.04 102.88 48.72"/><path class="cls-6" d="M518.23,519.09V515l5-.71c1.31-.19,2.09.29,2.08,1.76a2.22,2.22,0,0,1-2.09,2.35l-5,.71m5.06-6.15-6.51.92,0,11.44,1.46-.21v-4.68l4.53-.63,2.56,4.31,1.6-.22-2.63-4.44a3.71,3.71,0,0,0,2.63-3.62c0-2.36-1.61-3.15-3.63-2.87" transform="translate(-411.62 -465.46)"/><path class="cls-6" d="M533.52,511.35c-1.8.25-4.64,1.1-4.64,3.64s2.9,2.62,4.64,2.73c1.06.07,3.6,0,3.6,1.57,0,1.79-2.13,2.28-3.36,2.45a7.89,7.89,0,0,1-4.48-.43l-.74,1.19c1.33.83,3.67.78,5.22.56,2-.28,4.82-1.23,4.83-4,0-2.59-3-2.69-4.82-2.82-1-.06-3.43,0-3.43-1.47s2.14-2,3.18-2.12a8,8,0,0,1,3.89.29l.73-1.19c-1.15-.68-3.28-.61-4.62-.42" transform="translate(-411.62 -465.46)"/></g></g></svg>